<mxfile host="Electron" modified="2024-04-22T10:02:05.015Z" agent="Mozilla/5.0 (Windows NT 10.0; Win64; x64) AppleWebKit/537.36 (KHTML, like Gecko) draw.io/24.2.5 Chrome/120.0.6099.109 Electron/28.1.0 Safari/537.36" etag="bUS-EOzlHAWTxi3tNk1-" version="24.2.5" type="device">
  <diagram id="eOH6r4bebiKr7y4yvsSV" name="Page-1">
    <mxGraphModel dx="893" dy="580" grid="1" gridSize="10" guides="1" tooltips="1" connect="1" arrows="1" fold="1" page="1" pageScale="1" pageWidth="1654" pageHeight="1169" math="0" shadow="0">
      <root>
        <mxCell id="0" />
        <mxCell id="1" parent="0" />
        <mxCell id="ep3NQdGm5HHKTxAk3fZj-70" value="&lt;p style=&quot;margin: 0px ; margin-top: 4px ; margin-left: 10px ; text-align: left&quot;&gt;&lt;b&gt;bdd&lt;/b&gt;   GestionPersonajes&lt;/p&gt;" style="html=1;strokeWidth=1;shape=mxgraph.sysml.package;labelX=173.71;align=left;spacingLeft=10;overflow=fill;recursiveResize=0;fillColor=none;fontSize=14;" parent="1" vertex="1">
          <mxGeometry x="130" y="600" width="760" height="550" as="geometry" />
        </mxCell>
        <mxCell id="ep3NQdGm5HHKTxAk3fZj-1" value="" style="rounded=1;whiteSpace=wrap;html=1;fillColor=#d5e8d4;strokeColor=#82b366;strokeWidth=3;" parent="1" vertex="1">
          <mxGeometry x="220" y="130" width="190" height="150" as="geometry" />
        </mxCell>
        <mxCell id="ep3NQdGm5HHKTxAk3fZj-2" value="" style="ellipse;whiteSpace=wrap;html=1;aspect=fixed;fillColor=#fff2cc;strokeColor=#d6b656;" parent="1" vertex="1">
          <mxGeometry x="240" y="240" width="30" height="30" as="geometry" />
        </mxCell>
        <mxCell id="ep3NQdGm5HHKTxAk3fZj-3" value="" style="rounded=1;whiteSpace=wrap;html=1;fillColor=#d5e8d4;strokeColor=#82b366;strokeWidth=3;" parent="1" vertex="1">
          <mxGeometry x="610" y="60" width="190" height="150" as="geometry" />
        </mxCell>
        <mxCell id="ep3NQdGm5HHKTxAk3fZj-5" style="edgeStyle=orthogonalEdgeStyle;rounded=0;orthogonalLoop=1;jettySize=auto;html=1;strokeWidth=3;endArrow=open;endFill=0;fillColor=#d5e8d4;strokeColor=#82b366;" parent="1" source="ep3NQdGm5HHKTxAk3fZj-4" target="ep3NQdGm5HHKTxAk3fZj-3" edge="1">
          <mxGeometry relative="1" as="geometry" />
        </mxCell>
        <mxCell id="ep3NQdGm5HHKTxAk3fZj-4" value="" style="ellipse;whiteSpace=wrap;html=1;aspect=fixed;fillColor=#60a917;strokeColor=#2D7600;fontColor=#ffffff;" parent="1" vertex="1">
          <mxGeometry x="350" y="150" width="20" height="20" as="geometry" />
        </mxCell>
        <mxCell id="ep3NQdGm5HHKTxAk3fZj-8" value="" style="rounded=1;whiteSpace=wrap;html=1;fillColor=#d5e8d4;strokeColor=#82b366;strokeWidth=3;" parent="1" vertex="1">
          <mxGeometry x="810" y="250" width="190" height="150" as="geometry" />
        </mxCell>
        <mxCell id="ep3NQdGm5HHKTxAk3fZj-9" style="edgeStyle=orthogonalEdgeStyle;rounded=0;orthogonalLoop=1;jettySize=auto;html=1;strokeWidth=3;endArrow=open;endFill=0;fillColor=#d5e8d4;strokeColor=#82b366;" parent="1" source="ep3NQdGm5HHKTxAk3fZj-10" target="ep3NQdGm5HHKTxAk3fZj-8" edge="1">
          <mxGeometry relative="1" as="geometry" />
        </mxCell>
        <mxCell id="ep3NQdGm5HHKTxAk3fZj-10" value="" style="ellipse;whiteSpace=wrap;html=1;aspect=fixed;fillColor=#60a917;strokeColor=#2D7600;fontColor=#ffffff;" parent="1" vertex="1">
          <mxGeometry x="740" y="80" width="20" height="20" as="geometry" />
        </mxCell>
        <mxCell id="ep3NQdGm5HHKTxAk3fZj-11" value="" style="rounded=1;whiteSpace=wrap;html=1;fillColor=#d5e8d4;strokeColor=#82b366;strokeWidth=3;" parent="1" vertex="1">
          <mxGeometry x="510" y="330" width="190" height="150" as="geometry" />
        </mxCell>
        <mxCell id="ep3NQdGm5HHKTxAk3fZj-12" style="edgeStyle=orthogonalEdgeStyle;rounded=0;orthogonalLoop=1;jettySize=auto;html=1;strokeWidth=3;endArrow=open;endFill=0;fillColor=#d5e8d4;strokeColor=#82b366;entryX=0;entryY=0.5;entryDx=0;entryDy=0;" parent="1" source="ep3NQdGm5HHKTxAk3fZj-13" target="ep3NQdGm5HHKTxAk3fZj-11" edge="1">
          <mxGeometry relative="1" as="geometry" />
        </mxCell>
        <mxCell id="ep3NQdGm5HHKTxAk3fZj-13" value="" style="ellipse;whiteSpace=wrap;html=1;aspect=fixed;fillColor=#60a917;strokeColor=#2D7600;fontColor=#ffffff;" parent="1" vertex="1">
          <mxGeometry x="350" y="250" width="20" height="20" as="geometry" />
        </mxCell>
        <mxCell id="ep3NQdGm5HHKTxAk3fZj-17" style="edgeStyle=orthogonalEdgeStyle;rounded=0;orthogonalLoop=1;jettySize=auto;html=1;strokeWidth=3;endArrow=open;endFill=0;fillColor=#d5e8d4;strokeColor=#82b366;" parent="1" source="ep3NQdGm5HHKTxAk3fZj-18" target="ep3NQdGm5HHKTxAk3fZj-11" edge="1">
          <mxGeometry relative="1" as="geometry">
            <mxPoint x="520" y="415" as="targetPoint" />
          </mxGeometry>
        </mxCell>
        <mxCell id="ep3NQdGm5HHKTxAk3fZj-18" value="" style="ellipse;whiteSpace=wrap;html=1;aspect=fixed;fillColor=#60a917;strokeColor=#2D7600;fontColor=#ffffff;" parent="1" vertex="1">
          <mxGeometry x="840" y="350" width="20" height="20" as="geometry" />
        </mxCell>
        <mxCell id="ep3NQdGm5HHKTxAk3fZj-20" value="" style="ellipse;whiteSpace=wrap;html=1;aspect=fixed;fillColor=#fff2cc;strokeColor=#d6b656;" parent="1" vertex="1">
          <mxGeometry x="240" y="140" width="30" height="30" as="geometry" />
        </mxCell>
        <mxCell id="ep3NQdGm5HHKTxAk3fZj-21" value="" style="ellipse;whiteSpace=wrap;html=1;aspect=fixed;fillColor=#fff2cc;strokeColor=#d6b656;" parent="1" vertex="1">
          <mxGeometry x="670" y="100" width="30" height="30" as="geometry" />
        </mxCell>
        <mxCell id="ep3NQdGm5HHKTxAk3fZj-22" value="" style="ellipse;whiteSpace=wrap;html=1;aspect=fixed;fillColor=#fff2cc;strokeColor=#d6b656;" parent="1" vertex="1">
          <mxGeometry x="660" y="160" width="30" height="30" as="geometry" />
        </mxCell>
        <mxCell id="ep3NQdGm5HHKTxAk3fZj-23" value="" style="ellipse;whiteSpace=wrap;html=1;aspect=fixed;fillColor=#fff2cc;strokeColor=#d6b656;" parent="1" vertex="1">
          <mxGeometry x="940" y="270" width="30" height="30" as="geometry" />
        </mxCell>
        <mxCell id="ep3NQdGm5HHKTxAk3fZj-24" value="" style="ellipse;whiteSpace=wrap;html=1;aspect=fixed;fillColor=#60a917;strokeColor=#2D7600;fontColor=#ffffff;" parent="1" vertex="1">
          <mxGeometry x="620" y="160" width="20" height="20" as="geometry" />
        </mxCell>
        <mxCell id="ep3NQdGm5HHKTxAk3fZj-26" style="edgeStyle=orthogonalEdgeStyle;rounded=0;orthogonalLoop=1;jettySize=auto;html=1;strokeWidth=3;endArrow=open;endFill=0;fillColor=#d5e8d4;strokeColor=#82b366;exitX=0;exitY=0.5;exitDx=0;exitDy=0;entryX=1;entryY=0.5;entryDx=0;entryDy=0;" parent="1" source="ep3NQdGm5HHKTxAk3fZj-24" target="ep3NQdGm5HHKTxAk3fZj-1" edge="1">
          <mxGeometry relative="1" as="geometry">
            <mxPoint x="770" y="100" as="sourcePoint" />
            <mxPoint x="915" y="260" as="targetPoint" />
          </mxGeometry>
        </mxCell>
        <mxCell id="ep3NQdGm5HHKTxAk3fZj-27" value="puerta de doble sentido" style="rounded=1;whiteSpace=wrap;html=1;strokeWidth=3;fillColor=none;verticalAlign=top;fontSize=14;" parent="1" vertex="1">
          <mxGeometry x="320" y="80" width="330" height="140" as="geometry" />
        </mxCell>
        <mxCell id="ep3NQdGm5HHKTxAk3fZj-28" value="puerta de un solo sentido&lt;br&gt;" style="rounded=1;whiteSpace=wrap;html=1;strokeWidth=3;fillColor=none;verticalAlign=bottom;fontSize=14;" parent="1" vertex="1">
          <mxGeometry x="320" y="230" width="220" height="300" as="geometry" />
        </mxCell>
        <mxCell id="ep3NQdGm5HHKTxAk3fZj-29" value="objeto pasivo&lt;br&gt;en la&lt;br&gt;estancia" style="rounded=1;whiteSpace=wrap;html=1;strokeWidth=3;fillColor=none;verticalAlign=top;fontSize=14;" parent="1" vertex="1">
          <mxGeometry x="190" y="50" width="110" height="140" as="geometry" />
        </mxCell>
        <mxCell id="ep3NQdGm5HHKTxAk3fZj-30" value="estancia&lt;br&gt;" style="rounded=1;whiteSpace=wrap;html=1;strokeWidth=3;fillColor=none;verticalAlign=bottom;fontSize=14;" parent="1" vertex="1">
          <mxGeometry x="790" y="215" width="230" height="235" as="geometry" />
        </mxCell>
        <mxCell id="ep3NQdGm5HHKTxAk3fZj-35" value="" style="group" parent="1" vertex="1" connectable="0">
          <mxGeometry x="560" y="340" width="60" height="50" as="geometry" />
        </mxCell>
        <mxCell id="ep3NQdGm5HHKTxAk3fZj-33" value="" style="group" parent="ep3NQdGm5HHKTxAk3fZj-35" vertex="1" connectable="0">
          <mxGeometry width="60" height="50" as="geometry" />
        </mxCell>
        <mxCell id="ep3NQdGm5HHKTxAk3fZj-31" value="" style="shape=hexagon;perimeter=hexagonPerimeter2;whiteSpace=wrap;html=1;strokeWidth=3;fillColor=#f8cecc;fontSize=14;strokeColor=#b85450;" parent="ep3NQdGm5HHKTxAk3fZj-33" vertex="1">
          <mxGeometry width="60" height="50" as="geometry" />
        </mxCell>
        <mxCell id="ep3NQdGm5HHKTxAk3fZj-32" value="Mago" style="shape=umlActor;verticalLabelPosition=bottom;labelBackgroundColor=#ffffff;verticalAlign=top;html=1;outlineConnect=0;strokeWidth=3;fillColor=#f8cecc;fontSize=14;strokeColor=#b85450;" parent="ep3NQdGm5HHKTxAk3fZj-33" vertex="1">
          <mxGeometry x="20" y="5" width="20" height="40" as="geometry" />
        </mxCell>
        <mxCell id="ep3NQdGm5HHKTxAk3fZj-36" value="" style="group" parent="1" vertex="1" connectable="0">
          <mxGeometry x="710" y="130" width="60" height="50" as="geometry" />
        </mxCell>
        <mxCell id="ep3NQdGm5HHKTxAk3fZj-37" value="" style="group" parent="ep3NQdGm5HHKTxAk3fZj-36" vertex="1" connectable="0">
          <mxGeometry width="60" height="50" as="geometry" />
        </mxCell>
        <mxCell id="ep3NQdGm5HHKTxAk3fZj-38" value="" style="shape=hexagon;perimeter=hexagonPerimeter2;whiteSpace=wrap;html=1;strokeWidth=3;fillColor=#f8cecc;fontSize=14;strokeColor=#b85450;" parent="ep3NQdGm5HHKTxAk3fZj-37" vertex="1">
          <mxGeometry width="60" height="50" as="geometry" />
        </mxCell>
        <mxCell id="ep3NQdGm5HHKTxAk3fZj-39" value="Visitante" style="shape=umlActor;verticalLabelPosition=bottom;labelBackgroundColor=#ffffff;verticalAlign=top;html=1;outlineConnect=0;strokeWidth=3;fillColor=#f8cecc;fontSize=14;strokeColor=#b85450;" parent="ep3NQdGm5HHKTxAk3fZj-37" vertex="1">
          <mxGeometry x="20" y="5" width="20" height="40" as="geometry" />
        </mxCell>
        <mxCell id="ep3NQdGm5HHKTxAk3fZj-42" value="" style="ellipse;whiteSpace=wrap;html=1;aspect=fixed;strokeWidth=3;fillColor=#e1d5e7;fontSize=14;strokeColor=#9673a6;" parent="1" vertex="1">
          <mxGeometry x="620" y="430" width="40" height="40" as="geometry" />
        </mxCell>
        <mxCell id="ep3NQdGm5HHKTxAk3fZj-43" value="objeto activo&lt;br&gt;de la estancia" style="rounded=1;whiteSpace=wrap;html=1;strokeWidth=3;fillColor=none;verticalAlign=bottom;fontSize=14;" parent="1" vertex="1">
          <mxGeometry x="595" y="420" width="125" height="120" as="geometry" />
        </mxCell>
        <mxCell id="ep3NQdGm5HHKTxAk3fZj-45" value="" style="group" parent="1" vertex="1" connectable="0">
          <mxGeometry x="285" y="850" width="60" height="50" as="geometry" />
        </mxCell>
        <mxCell id="ep3NQdGm5HHKTxAk3fZj-46" value="" style="group" parent="ep3NQdGm5HHKTxAk3fZj-45" vertex="1" connectable="0">
          <mxGeometry width="60" height="50" as="geometry" />
        </mxCell>
        <mxCell id="ep3NQdGm5HHKTxAk3fZj-47" value="" style="shape=hexagon;perimeter=hexagonPerimeter2;whiteSpace=wrap;html=1;strokeWidth=3;fillColor=#f8cecc;fontSize=14;strokeColor=#b85450;" parent="ep3NQdGm5HHKTxAk3fZj-46" vertex="1">
          <mxGeometry width="60" height="50" as="geometry" />
        </mxCell>
        <mxCell id="ep3NQdGm5HHKTxAk3fZj-48" value="Mago" style="shape=umlActor;verticalLabelPosition=bottom;labelBackgroundColor=#ffffff;verticalAlign=top;html=1;outlineConnect=0;strokeWidth=3;fillColor=#f8cecc;fontSize=14;strokeColor=#b85450;" parent="ep3NQdGm5HHKTxAk3fZj-46" vertex="1">
          <mxGeometry x="20" y="5" width="20" height="40" as="geometry" />
        </mxCell>
        <mxCell id="ep3NQdGm5HHKTxAk3fZj-49" value="" style="group" parent="1" vertex="1" connectable="0">
          <mxGeometry x="415" y="850" width="60" height="50" as="geometry" />
        </mxCell>
        <mxCell id="ep3NQdGm5HHKTxAk3fZj-50" value="" style="group" parent="ep3NQdGm5HHKTxAk3fZj-49" vertex="1" connectable="0">
          <mxGeometry width="60" height="50" as="geometry" />
        </mxCell>
        <mxCell id="ep3NQdGm5HHKTxAk3fZj-51" value="" style="shape=hexagon;perimeter=hexagonPerimeter2;whiteSpace=wrap;html=1;strokeWidth=3;fillColor=#f8cecc;fontSize=14;strokeColor=#b85450;" parent="ep3NQdGm5HHKTxAk3fZj-50" vertex="1">
          <mxGeometry width="60" height="50" as="geometry" />
        </mxCell>
        <mxCell id="ep3NQdGm5HHKTxAk3fZj-52" value="Visitante" style="shape=umlActor;verticalLabelPosition=bottom;labelBackgroundColor=#ffffff;verticalAlign=top;html=1;outlineConnect=0;strokeWidth=3;fillColor=#f8cecc;fontSize=14;strokeColor=#b85450;" parent="ep3NQdGm5HHKTxAk3fZj-50" vertex="1">
          <mxGeometry x="20" y="5" width="20" height="40" as="geometry" />
        </mxCell>
        <mxCell id="ep3NQdGm5HHKTxAk3fZj-55" value="" style="verticalAlign=bottom;html=1;endArrow=open;endSize=12;edgeStyle=orthogonalEdgeStyle;startFill=0;startSize=12;startArrow=diamondThin;strokeWidth=3;fontSize=14;exitX=0.5;exitY=1;exitDx=0;exitDy=0;entryX=0.5;entryY=0;entryDx=0;entryDy=0;" parent="1" source="ep3NQdGm5HHKTxAk3fZj-65" target="ep3NQdGm5HHKTxAk3fZj-51" edge="1">
          <mxGeometry relative="1" as="geometry">
            <mxPoint x="405" y="750" as="sourcePoint" />
            <mxPoint x="695" y="690" as="targetPoint" />
          </mxGeometry>
        </mxCell>
        <mxCell id="ep3NQdGm5HHKTxAk3fZj-56" value="" style="resizable=0;html=1;align=left;verticalAlign=top;labelBackgroundColor=none;fontSize=10" parent="ep3NQdGm5HHKTxAk3fZj-55" connectable="0" vertex="1">
          <mxGeometry x="-0.9" relative="1" as="geometry" />
        </mxCell>
        <mxCell id="ep3NQdGm5HHKTxAk3fZj-57" value="" style="resizable=0;html=1;align=right;verticalAlign=top;labelBackgroundColor=none;fontSize=10" parent="ep3NQdGm5HHKTxAk3fZj-55" connectable="0" vertex="1">
          <mxGeometry x="0.9" relative="1" as="geometry" />
        </mxCell>
        <mxCell id="ep3NQdGm5HHKTxAk3fZj-58" value="" style="resizable=0;html=1;align=right;verticalAlign=bottom;labelBackgroundColor=none;fontSize=10" parent="ep3NQdGm5HHKTxAk3fZj-55" connectable="0" vertex="1">
          <mxGeometry x="0.9" relative="1" as="geometry" />
        </mxCell>
        <mxCell id="ep3NQdGm5HHKTxAk3fZj-59" value="" style="verticalAlign=bottom;html=1;endArrow=open;endSize=12;edgeStyle=orthogonalEdgeStyle;startFill=0;startSize=12;startArrow=diamondThin;strokeWidth=3;fontSize=14;exitX=0.5;exitY=1;exitDx=0;exitDy=0;entryX=0.5;entryY=0;entryDx=0;entryDy=0;" parent="1" source="ep3NQdGm5HHKTxAk3fZj-65" target="ep3NQdGm5HHKTxAk3fZj-47" edge="1">
          <mxGeometry relative="1" as="geometry">
            <mxPoint x="345" y="750" as="sourcePoint" />
            <mxPoint x="455" y="860" as="targetPoint" />
          </mxGeometry>
        </mxCell>
        <mxCell id="ep3NQdGm5HHKTxAk3fZj-60" value="" style="resizable=0;html=1;align=left;verticalAlign=top;labelBackgroundColor=none;fontSize=10" parent="ep3NQdGm5HHKTxAk3fZj-59" connectable="0" vertex="1">
          <mxGeometry x="-0.9" relative="1" as="geometry" />
        </mxCell>
        <mxCell id="ep3NQdGm5HHKTxAk3fZj-61" value="" style="resizable=0;html=1;align=right;verticalAlign=top;labelBackgroundColor=none;fontSize=10" parent="ep3NQdGm5HHKTxAk3fZj-59" connectable="0" vertex="1">
          <mxGeometry x="0.9" relative="1" as="geometry" />
        </mxCell>
        <mxCell id="ep3NQdGm5HHKTxAk3fZj-62" value="" style="resizable=0;html=1;align=right;verticalAlign=bottom;labelBackgroundColor=none;fontSize=10" parent="ep3NQdGm5HHKTxAk3fZj-59" connectable="0" vertex="1">
          <mxGeometry x="0.9" relative="1" as="geometry" />
        </mxCell>
        <mxCell id="ep3NQdGm5HHKTxAk3fZj-64" style="edgeStyle=orthogonalEdgeStyle;rounded=0;orthogonalLoop=1;jettySize=auto;html=1;endArrow=open;endFill=0;strokeWidth=3;fontSize=14;entryX=1;entryY=0.5;entryDx=0;entryDy=0;" parent="1" source="ep3NQdGm5HHKTxAk3fZj-63" target="ep3NQdGm5HHKTxAk3fZj-65" edge="1">
          <mxGeometry relative="1" as="geometry">
            <mxPoint x="435" y="720" as="targetPoint" />
          </mxGeometry>
        </mxCell>
        <mxCell id="ep3NQdGm5HHKTxAk3fZj-63" value="&lt;p style=&quot;margin: 0px ; margin-top: 4px ; text-align: center&quot;&gt;&amp;lt;&amp;lt;cliente&amp;gt;&amp;gt;&lt;br&gt;&lt;b&gt;GestorPersonajes&lt;/b&gt;&lt;/p&gt;&lt;hr&gt;&lt;p style=&quot;margin: 0px ; margin-left: 8px ; text-align: left&quot;&gt;&lt;br&gt;&lt;/p&gt;" style="shape=rect;html=1;overflow=fill;whiteSpace=wrap;strokeWidth=3;fillColor=none;fontSize=14;" parent="1" vertex="1">
          <mxGeometry x="655" y="660" width="200" height="80" as="geometry" />
        </mxCell>
        <mxCell id="ep3NQdGm5HHKTxAk3fZj-65" value="&lt;p style=&quot;margin: 0px ; margin-top: 4px ; text-align: center&quot;&gt;&amp;lt;&amp;lt;servidor&amp;gt;&amp;gt;&lt;br&gt;&lt;b&gt;ContenedorPersonajes&lt;/b&gt;&lt;/p&gt;&lt;hr&gt;&lt;p style=&quot;margin: 0px ; margin-left: 8px ; text-align: left&quot;&gt;+creaPersonaje(tipoPersonaje) : Personaje&lt;br&gt;+eliminaPersonaje( :Personaje)&lt;/p&gt;" style="shape=rect;html=1;overflow=fill;whiteSpace=wrap;strokeWidth=3;fillColor=none;fontSize=14;" parent="1" vertex="1">
          <mxGeometry x="230" y="650" width="290" height="100" as="geometry" />
        </mxCell>
        <mxCell id="ep3NQdGm5HHKTxAk3fZj-66" value="&lt;p style=&quot;margin: 0px ; margin-top: 4px ; text-align: center&quot;&gt;&amp;lt;&amp;lt;ObjetoRemoto&amp;gt;&amp;gt;&lt;br&gt;&lt;b&gt;Personaje&lt;/b&gt;&lt;/p&gt;&lt;hr&gt;&lt;p style=&quot;margin: 0px ; margin-left: 8px ; text-align: left&quot;&gt;+info() : String&lt;/p&gt;&lt;p style=&quot;margin: 0px ; margin-left: 8px ; text-align: left&quot;&gt;+status() : String&lt;/p&gt;&lt;p style=&quot;margin: 0px ; margin-left: 8px ; text-align: left&quot;&gt;+acciones() : MapaAcciones&lt;/p&gt;&lt;p style=&quot;margin: 0px ; margin-left: 8px ; text-align: left&quot;&gt;+actua(hability : String, value : String)&lt;/p&gt;&lt;p style=&quot;margin: 0px ; margin-left: 8px ; text-align: left&quot;&gt;+commit() : String&lt;/p&gt;" style="shape=rect;html=1;overflow=fill;whiteSpace=wrap;strokeWidth=3;fillColor=none;fontSize=14;" parent="1" vertex="1">
          <mxGeometry x="245" y="990" width="260" height="140" as="geometry" />
        </mxCell>
        <mxCell id="ep3NQdGm5HHKTxAk3fZj-67" style="edgeStyle=orthogonalEdgeStyle;rounded=0;orthogonalLoop=1;jettySize=auto;html=1;endArrow=block;endFill=0;strokeWidth=3;fontSize=14;entryX=0.5;entryY=0;entryDx=0;entryDy=0;" parent="1" target="ep3NQdGm5HHKTxAk3fZj-66" edge="1">
          <mxGeometry relative="1" as="geometry">
            <mxPoint x="445" y="920" as="sourcePoint" />
            <Array as="points" />
          </mxGeometry>
        </mxCell>
        <mxCell id="ep3NQdGm5HHKTxAk3fZj-68" style="edgeStyle=orthogonalEdgeStyle;rounded=0;orthogonalLoop=1;jettySize=auto;html=1;endArrow=block;endFill=0;strokeWidth=3;fontSize=14;entryX=0.5;entryY=0;entryDx=0;entryDy=0;" parent="1" edge="1" target="ep3NQdGm5HHKTxAk3fZj-66">
          <mxGeometry relative="1" as="geometry">
            <mxPoint x="315" y="920" as="sourcePoint" />
            <mxPoint x="375" y="990" as="targetPoint" />
            <Array as="points" />
          </mxGeometry>
        </mxCell>
        <mxCell id="Ldey0VcRHfHmhugbh7vY-1" value="&lt;p style=&quot;margin: 0px ; margin-top: 4px ; text-align: center&quot;&gt;&amp;lt;&amp;lt;Block&amp;gt;&amp;gt;&lt;br&gt;&lt;b&gt;MapaAcciones&lt;/b&gt;&lt;/p&gt;&lt;hr&gt;&lt;p style=&quot;margin: 0px ; margin-left: 8px ; text-align: left&quot;&gt;+info() : String&lt;/p&gt;&lt;p style=&quot;margin: 0px ; margin-left: 8px ; text-align: left&quot;&gt;+status() : String&lt;/p&gt;&lt;p style=&quot;margin: 0px ; margin-left: 8px ; text-align: left&quot;&gt;+acciones() : MapaAcciones&lt;/p&gt;&lt;p style=&quot;margin: 0px ; margin-left: 8px ; text-align: left&quot;&gt;+actua(hability, value)&lt;/p&gt;&lt;p style=&quot;margin: 0px ; margin-left: 8px ; text-align: left&quot;&gt;+commit()&lt;/p&gt;" style="shape=rect;html=1;overflow=fill;whiteSpace=wrap;strokeWidth=3;fillColor=none;fontSize=14;" vertex="1" parent="1">
          <mxGeometry x="580" y="820" width="210" height="140" as="geometry" />
        </mxCell>
        <mxCell id="Ldey0VcRHfHmhugbh7vY-2" value="&lt;p style=&quot;margin:0px;margin-top:4px;text-align:center;&quot;&gt;&amp;lt;&amp;lt;block&amp;gt;&amp;gt;&lt;br&gt;&lt;b&gt;MapaAcciones&lt;/b&gt;&lt;/p&gt;&lt;br&gt;&lt;hr&gt;&lt;p style=&quot;font-size:10px;margin:0px;text-align:center;&quot;&gt;&lt;i&gt;values&lt;/i&gt;&lt;/p&gt;&lt;p style=&quot;margin:0px;margin-left:8px;text-align:left;&quot;&gt;{ accion : String= &quot;&quot;,&amp;nbsp;&lt;br&gt;&amp;nbsp; valor : String = &quot;&quot;&amp;nbsp; }&lt;/p&gt;&lt;hr&gt;&lt;p style=&quot;font-size:10px;margin:0px;text-align:center;&quot;&gt;&lt;i&gt;properties&lt;/i&gt;&lt;/p&gt;&lt;p style=&quot;margin:0px;margin-left:8px;text-align:left;&quot;&gt;abrir&lt;/p&gt;" style="shape=rect;html=1;overflow=fill;verticalAlign=top;align=left;whiteSpace=wrap;strokeWidth=2;" vertex="1" parent="1">
          <mxGeometry x="590" y="990" width="220" height="340" as="geometry" />
        </mxCell>
      </root>
    </mxGraphModel>
  </diagram>
</mxfile>
